HIERARCHY
ROOT hip
{
  OFFSET 0 0 0
  CHANNELS 6 Xposition Yposition Zposition Zrotation Yrotation Xrotation
  JOINT abdomen
  {
    OFFSET 0 20.6881 -0.73152
    CHANNELS 3 Zrotation Xrotation Yrotation
    JOINT chest
    {
      OFFSET 0 11.7043 -0.48768
      CHANNELS 3 Zrotation Xrotation Yrotation
      JOINT neck
      {
        OFFSET 0 22.1894 -2.19456
        CHANNELS 3 Zrotation Xrotation Yrotation
        JOINT head
        {
          OFFSET -0.24384 7.07133 1.2192
          CHANNELS 3 Zrotation Xrotation Yrotation
          JOINT leftEye
          {
            OFFSET 4.14528 8.04674 8.04672
            CHANNELS 3 Zrotation Xrotation Yrotation
            End Site
            {
              OFFSET 1 0 0
            }
          }
          JOINT rightEye
          {
            OFFSET -3.6576 8.04674 8.04672
            CHANNELS 3 Zrotation Xrotation Yrotation
            End Site
            {
              OFFSET 1 0 0
            }
          }
        }
      }
      JOINT rCollar
      {
        OFFSET -2.68224 19.2634 -4.8768
        CHANNELS 3 Zrotation Xrotation Yrotation
        JOINT rShldr
        {
          OFFSET -8.77824 -1.95073 1.46304
          CHANNELS 3 Zrotation Xrotation Yrotation
          JOINT rForeArm
          {
            OFFSET -28.1742 -1.7115 0.48768
            CHANNELS 3 Zrotation Xrotation Yrotation
            JOINT rHand
            {
              OFFSET -22.5879 0.773209 7.07136
              CHANNELS 3 Zrotation Xrotation Yrotation
              JOINT rThumb1
              {
                OFFSET -1.2192 -0.487915 3.41376
                CHANNELS 3 Zrotation Xrotation Yrotation
                JOINT rThumb2
                {
                  OFFSET -3.37035 -0.52449 3.41376
                  CHANNELS 3 Zrotation Xrotation Yrotation
                  End Site
                  {
                    OFFSET -1.78271 -1.18214 1.43049
                  }
                }
              }
              JOINT rIndex1
              {
                OFFSET -7.75947 0.938293 5.60832
                CHANNELS 3 Zrotation Xrotation Yrotation
                JOINT rIndex2
                {
                  OFFSET -2.54057 -0.884171 1.56538
                  CHANNELS 3 Zrotation Xrotation Yrotation
                  End Site
                  {
                    OFFSET -1.62519 -0.234802 1.16502
                  }
                }
              }
              JOINT rMid1
              {
                OFFSET -8.24714 1.18213 3.41376
                CHANNELS 3 Zrotation Xrotation Yrotation
                JOINT rMid2
                {
                  OFFSET -3.10165 -0.590103 1.0647
                  CHANNELS 3 Zrotation Xrotation Yrotation
                  End Site
                  {
                    OFFSET -2.48547 -0.328903 0.83742
                  }
                }
              }
              JOINT rRing1
              {
                OFFSET -8.82822 0.546677 1.51678
                CHANNELS 3 Zrotation Xrotation Yrotation
                JOINT rRing2
                {
                  OFFSET -2.60934 -0.819778 -0.0198488
                  CHANNELS 3 Zrotation Xrotation Yrotation
                  End Site
                  {
                    OFFSET -2.33842 -0.294052 0.168128
                  }
                }
              }
              JOINT rPinky1
              {
                OFFSET -8.27202 -0.0477905 -0.4584
                CHANNELS 3 Zrotation Xrotation Yrotation
                JOINT rPinky2
                {
                  OFFSET -1.82734 -0.647385 -0.700984
                  CHANNELS 3 Zrotation Xrotation Yrotation
                  End Site
                  {
                    OFFSET -1.69225 -0.51767 -0.607171
                  }
                }
              }
            }
          }
        }
      }
      JOINT lCollar
      {
        OFFSET 2.68224 19.2634 -4.8768
        CHANNELS 3 Zrotation Xrotation Yrotation
        JOINT lShldr
        {
          OFFSET 8.77824 -1.95073 1.46304
          CHANNELS 3 Zrotation Xrotation Yrotation
          JOINT lForeArm
          {
            OFFSET 28.1742 -1.7115 0.48768
            CHANNELS 3 Zrotation Xrotation Yrotation
            JOINT lHand
            {
              OFFSET 22.5879 0.773209 7.07136
              CHANNELS 3 Zrotation Xrotation Yrotation
              JOINT lThumb1
              {
                OFFSET 1.2192 -0.487915 3.41376
                CHANNELS 3 Zrotation Xrotation Yrotation
                JOINT lThumb2
                {
                  OFFSET 3.37035 -0.52449 3.41376
                  CHANNELS 3 Zrotation Xrotation Yrotation
                  End Site
                  {
                    OFFSET 1.78271 -1.18214 1.43049
                  }
                }
              }
              JOINT lIndex1
              {
                OFFSET 7.75947 0.938293 5.60832
                CHANNELS 3 Zrotation Xrotation Yrotation
                JOINT lIndex2
                {
                  OFFSET 2.54057 -0.884171 1.56538
                  CHANNELS 3 Zrotation Xrotation Yrotation
                  End Site
                  {
                    OFFSET 1.62519 -0.234802 1.16502
                  }
                }
              }
              JOINT lMid1
              {
                OFFSET 8.24714 1.18213 3.41376
                CHANNELS 3 Zrotation Xrotation Yrotation
                JOINT lMid2
                {
                  OFFSET 3.10165 -0.590103 1.0647
                  CHANNELS 3 Zrotation Xrotation Yrotation
                  End Site
                  {
                    OFFSET 2.48547 -0.328903 0.83742
                  }
                }
              }
              JOINT lRing1
              {
                OFFSET 8.82822 0.546677 1.51678
                CHANNELS 3 Zrotation Xrotation Yrotation
                JOINT lRing2
                {
                  OFFSET 2.60934 -0.819778 -0.0198488
                  CHANNELS 3 Zrotation Xrotation Yrotation
                  End Site
                  {
                    OFFSET 2.33842 -0.294052 0.168128
                  }
                }
              }
              JOINT lPinky1
              {
                OFFSET 8.27202 -0.0477905 -0.4584
                CHANNELS 3 Zrotation Xrotation Yrotation
                JOINT lPinky2
                {
                  OFFSET 1.82734 -0.647385 -0.700984
                  CHANNELS 3 Zrotation Xrotation Yrotation
                  End Site
                  {
                    OFFSET 1.69225 -0.51767 -0.607171
                  }
                }
              }
            }
          }
        }
      }
    }
  }
  JOINT rButtock
  {
    OFFSET -8.77824 4.35084 1.2192
    CHANNELS 3 Zrotation Xrotation Yrotation
    JOINT rThigh
    {
      OFFSET 0 -1.70687 -2.19456
      CHANNELS 3 Zrotation Xrotation Yrotation
      JOINT rShin
      {
        OFFSET 0 -36.8199 0.73152
        CHANNELS 3 Zrotation Xrotation Yrotation
        JOINT rFoot
        {
          OFFSET 0.73152 -45.1104 -5.12064
          CHANNELS 3 Zrotation Xrotation Yrotation
          End Site
          {
            OFFSET -1.1221 -3.69964 12.103
          }
        }
      }
    }
  }
  JOINT lButtock
  {
    OFFSET 8.77824 4.35084 1.2192
    CHANNELS 3 Zrotation Xrotation Yrotation
    JOINT lThigh
    {
      OFFSET 0 -1.70687 -2.19456
      CHANNELS 3 Zrotation Xrotation Yrotation
      JOINT lShin
      {
        OFFSET 0 -36.8199 0.73152
        CHANNELS 3 Zrotation Xrotation Yrotation
        JOINT lFoot
        {
          OFFSET -0.73152 -45.1104 -5.12064
          CHANNELS 3 Zrotation Xrotation Yrotation
          End Site
          {
            OFFSET 1.1221 -3.69964 12.103
          }
        }
      }
    }
  }
}
MOTION
Frames:	4
Frame Time:	0.03333
-0.10093245655298233 61.498212814331055 0.0032143667340278625 -6.097338046600709 5.730034378699519 2.9110652575169276 -2.325139614001499 14.83903505679063 3.8111145026124156 2.577576788979412 -9.72545513276238 1.103019522061524 -4.785507582059142 15.34661544231825 -3.4287743866968534 8.668490188892077 -25.10984835137997 -5.061230792908332 0.014635547926603494 0.0006611943281689687 -0.005814678778649371 -0.011608440102965578 -0.03637582661134252 0.02514523470769616 0.0344158224537067 -0.006364642408967624 -0.022416300659905002 48.80799905415586 29.785741215657342 15.757111518983308 -23.768978056921625 -29.583202201104367 66.58801965245289 -4.772168222610107 -11.260668214769684 -5.2057652797086185 -0.049546085517566715 0.025063058994244446 -0.03036966241209478 -0.014410258405698855 0.03473946269659556 0.0016081893844206586 -0.026035613899030793 0.03302215036801337 0.035167363375926276 7.58657200266278 5.354557535682761 0.43317710718626135 -0.031600563886151574 -0.03320859318801356 -0.04530525841450282 2.8577039777393796 0.9637853687788737 0.08750789005831412 -0.021952734920523444 0.0012795932523195764 0.02413031128571458 10.075556115465249 0.7056054454520081 0.027438097195557707 -0.01319405784661346 0.021613173133153318 0.05768575001751785 2.1985217806112143 -0.707843986591627 -0.23791696653483263 -0.011449958369880126 0.010722276419009314 -0.005088064044836374 -57.92087159573272 32.2489430718903 -25.652604211133156 22.93783795003216 -27.64173288235929 -62.86961685697376 5.538898791852705 -13.921457198407362 4.1830255599956025 -0.018531850682978423 -0.025852479451909827 -0.012331479659634896 -0.017149857953961546 -0.027776218239899782 0.003768236709437191 -0.052002605741244115 0.024304294346564788 -0.002084434996470376 -7.661832149579857 5.380159646012908 -0.4036760794179482 0.015574005246392669 -0.06644578779317654 0.052247478695159645 -2.8208585222617457 0.9455716021399768 -0.118048293859446 0.019785563921645998 0.060805545642626954 -0.024364725512463534 -10.114815189040835 0.7447035293344239 -0.02980139600923501 -0.0063397028803478216 0.00633785526081648 -0.0411646963540206 -2.1953525728363283 -0.7201160222611416 0.23589728493334516 -0.052213274388456694 -0.036460723728291664 0.004092777416718578 -32.16072093347584 -35.83462846160692 -28.488217009219188 -5.887121472533819 62.251409605006735 6.8107487440876024 -4.628581424557161 -10.21571415855485 -10.33539785583369 0.027214942108768698 -0.01825050558611208 -0.0431298698442802 37.740391258918464 -34.27446299101427 31.429723352649805 5.6625952252689284 63.44029282250666 -6.703898545372392 4.951902089298054 -10.27064510118103 13.82860077664104
-0.3157295286655426 62.41300106048584 -0.00674249604344368 -7.375904209223845 5.8677425183112 1.61610717449429 -2.4772466461572136 14.66660863874095 3.6580999090707356 2.647568512168883 -9.645837325154835 1.0574460453199659 -4.841494642685737 15.443149920952624 -3.767769268365868 8.662998716799388 -25.01594178802876 -5.345043509055756 -0.028916512985748124 -0.040031738725444736 -0.03862733443821375 -0.021414884203811387 0.011271573038666433 0.003927625577021785 0.06344108485764612 -0.04451586463726388 -0.04266450317611358 49.39900849284789 29.72308447530623 16.217724108683335 -23.703157231437505 -28.85858401696313 65.43816413587041 -4.594781379675706 -10.251891963041114 -5.139628557975385 -0.032724716974000465 -0.019867686274244824 0.0006600470698318181 -0.052076243718233314 0.09920606977562868 0.014667137551514803 -0.020493555717800132 0.05615952290313734 0.07188325870274138 7.725299121121262 5.383598219373186 0.4732379275765315 -0.014238383098537831 0.02278785894868973 -0.07595968101804895 2.919748562386129 0.9487840322057042 0.06125461724034207 -0.025060177508188345 0.025449444930026183 -0.0370392620953329 10.226566475372353 0.795419391469061 0.08210735819916289 0.016873288653428922 0.03629188998974541 0.0010074529025768807 2.256903462872133 -0.7648967168113021 -0.2405330357086533 0.005988101550544226 0.010214067656078053 0.07613387752231073 -58.49574812760518 32.19976229477163 -26.41520678479613 22.91513440123104 -27.053779953320838 -61.897305277676594 5.524316337974727 -13.221633454726916 4.37897429577316 0.005584426698425894 -0.04056129182953228 -0.006728803549520374 -0.008616923968205775 -0.0019332103393780622 0.05943193056751392 -0.009631100338246885 0.011533388063374773 0.0034408678769525954 -7.740866829787014 5.448495688658885 -0.39531728857560133 0.03840183147389755 -0.06033020716507638 0.07952117110296103 -2.838111153218375 0.9828307109492195 -0.14708321457775864 0.01881066113933246 0.022362786394562215 0.01045915405340515 -10.21266618663773 0.7678832703867431 -0.0499753202182197 -0.0339868145366785 0.016026478598479568 -0.01396805701779342 -2.2450456141427564 -0.685939569923396 0.22254170378503146 -0.015677471940147784 -0.032163467523295824 -0.003345031785160854 -32.280778583611735 -35.24131724916459 -27.710695594861615 -5.204467543766316 61.6414054102329 6.277284929813396 -4.5576866222933665 -10.161993013185405 -10.322359024708135 0.024626834021862772 -0.020235569334286704 -0.04847502647834409 37.873842910016755 -33.885169529080216 30.405379392255483 5.317068334875854 62.71389537408664 -6.49879906365431 4.895559858834619 -10.178664651175762 13.750995313517707
0.18677562475204468 53.8415789604187 -0.4254070110619068 17.716153206915536 -7.974443077702171 30.823345988325244 -3.4107296672399143 20.708187582278615 5.554237262294437 0.4275845696381961 -13.599148255437276 2.1162391320103056 -7.864215777329212 14.019852049816919 -5.570517445067987 9.122060853557823 -30.830500611480833 -6.0033281766383 0.3124443355395888 -0.030086663128788823 0.5167504480968911 0.22124668924622648 0.14617282506659 -0.24516110252114517 -0.6044715814635698 -0.8306734128700819 -0.45361735541202364 -0.2953331108431201 27.046232594287975 73.88203330862287 -24.023008160080032 -39.1026041869858 83.59685725194213 -5.668366308230766 -33.20219842340313 -9.917801797526403 -0.9054881033872281 -0.29252371529927634 -0.30472464763231405 -1.4671905877329119 -0.3474902496143357 -0.03357358142178611 -0.11512966864973494 0.0808496962573814 0.3212810528608514 7.684423000259675 5.295859743729318 0.6975293337278499 0.24608200412033332 0.488967799874218 -0.22220955915621315 1.712925959752867 0.2538959539742395 -0.003352035397102762 -0.04661918937565758 -0.288737495982415 -0.5582496102768307 10.183704477009584 1.2476520861094234 0.22864639879914192 0.5914492922024116 -1.1979684363131042 -0.1986546646276457 2.766189474701552 -0.6583642819750563 -0.05835406801954773 -0.6190806624071394 -0.37354309906885025 0.09697571952692861 -39.21201015711107 29.759216176015595 -57.00352254868665 25.05009102633153 -31.70132582499536 -67.91070627579337 6.9721811188944995 -11.033087165398506 -4.036670827781508 0.4999865491918882 -0.3242522385106599 -0.6370447002545077 -0.02904591305400813 -0.2540808493295058 -0.7909528746386958 -0.14561376341085386 -0.42034304833367514 0.1422435453031286 -7.284598240399115 4.726763686328801 -0.23546959769742598 1.6191633639827534 0.2541016067012803 0.4891661421644128 -2.626464294850601 0.7460953404603726 -0.4146977102216745 0.31100327234642183 -0.20633211741985738 -0.8385297312411832 -10.672194483807019 0.7527788940066417 -0.033407842612707524 0.68032099227912 -0.44169053778028555 0.43461881070966296 -1.9426556372265436 -1.0005265571499589 0.08147225732805749 -0.7682856112175391 -0.15262719374969336 0.41525373030879587 -39.44414779643229 -56.62306052134943 -37.01514469737358 -97.41816850919146 88.80193951273374 98.00286002290123 -0.8358330871794976 -21.42095368066259 -3.982889918256828 0.25112369758400765 0.12735145173603973 0.5983104840279538 49.442571439374234 -55.766240610728005 43.01321192080368 159.38458164089025 83.41935429579183 -159.31529620194965 4.6040665949655155 -16.779042715053325 8.997806905950597
1.1387944221496582 59.44075584411621 -0.44440487399697304 18.26092055737929 -0.46688569156586096 28.00614908778886 -5.87339919560444 19.071266153340652 7.858699545800781 0.8550421404465122 -14.965847764015672 1.1759371275366992 -7.414767985601217 11.95966977442879 -3.096763160010765 6.7980966724237994 -27.9668942830815 -5.517948040347337 0.5123418277919123 0.4511322871320497 -0.5315824706838382 1.7420553291807963 -1.2005592124426547 0.8913912332705565 -0.45758115964730534 -0.738191797734463 -0.7924696568821147 13.239328767319128 26.662066896873313 57.63213900894877 -25.603491735906182 -41.21831675409978 91.6009442044158 -7.1775102657234235 -53.63303592914963 -12.739319646486466 0.4650301212674389 -0.5265872545230318 -0.1031495968868119 -0.40335426011416425 -0.29628256049860474 0.584432927016663 0.6935668101530376 0.47496228353769526 0.020563618517645654 6.80348569167894 4.341839411029447 0.4418583843430533 -0.10340495524832047 0.5116757242652774 -0.3726312421342271 3.6772419411065194 0.5007423523122324 0.5281156694323808 0.3938893254718191 -0.42400032114952607 -1.2488476893792928 9.704681112401786 0.5290574884859021 0.4263066305723161 -0.9376993822347139 0.13574253923459872 -0.028803067812502442 2.6707875268089296 0.45845958600759246 -0.38025015807081763 0.8427022297721205 -1.0235224167032166 0.04467882868199216 -42.51529113030975 25.057288338169432 -60.371400035960725 22.75472057838412 -24.747460712133897 -57.11408282078165 10.576197028796136 -1.0486805647373125 -16.26358029122351 0.22721131202149877 -0.06031964171620401 -1.0885650275087788 0.27590575832692954 -0.0742401542140718 0.3123491397780317 0.57636743410223 0.7845686754771437 0.5390399700404344 -9.886767979258803 4.88391481318657 0.2240983999464126 0.6694770531155199 0.8129143874195198 -0.21304923494259467 -3.7933914423767017 1.4856163036794907 -0.7997703286920649 0.9548942767485153 -0.18017227945529699 -0.1635602188571946 -10.874839366292127 0.5905674507475395 -1.2740924954384831 -0.530182068460574 -0.6461594809801839 0.7939689367657854 -2.5898820150994246 -1.0481521855719884 0.9941611410086244 -0.09725452998328266 0.3839594043573841 0.7811934948100996 -40.57166176423966 -56.63115429551589 -27.876915078503046 -85.18852355498687 91.26006995350797 87.0790994266789 -0.10905058684501202 -19.65028007230285 -4.777538031958207 0.851699243095467 -1.1676677961642237 -0.2106473028714245 47.09604287454343 -46.83957268630403 37.24000818522874 137.0098518067906 83.1784262030088 -141.79120279185298 6.493997013780969 -16.139141074735047 9.34348107229765
